<svg id="spinner_3" data-name="spinner 3" xmlns="http://www.w3.org/2000/svg" width="60.007" height="60" viewBox="0 0 60.007 60">
  <g id="Group_5" data-name="Group 5" transform="translate(0 0)">
    <path id="Combined_Shape" data-name="Combined Shape" d="M30,60a30.222,30.222,0,0,1-6.046-.609,29.836,29.836,0,0,1-10.727-4.514,30.088,30.088,0,0,1-10.869-13.2A29.848,29.848,0,0,1,.609,36.046a30.292,30.292,0,0,1,0-12.092A29.836,29.836,0,0,1,5.124,13.227a30.088,30.088,0,0,1,13.2-10.869A29.849,29.849,0,0,1,23.954.609a30.292,30.292,0,0,1,12.092,0A29.835,29.835,0,0,1,46.773,5.124a30.088,30.088,0,0,1,10.869,13.2,29.849,29.849,0,0,1,1.748,5.631,30.293,30.293,0,0,1,0,12.092,29.836,29.836,0,0,1-4.514,10.727,30.087,30.087,0,0,1-13.2,10.869,29.848,29.848,0,0,1-5.631,1.748A30.222,30.222,0,0,1,30,60ZM30,4.107A25.893,25.893,0,1,0,55.893,30,25.922,25.922,0,0,0,30,4.107Z" fill="#e8e8e8"/>
    <path id="Combined_Shape-2" data-name="Combined Shape" d="M16.241,39.868,12.506,38.2A26.2,26.2,0,0,0,0,3.742L1.73,0A30,30,0,0,1,16.241,39.868Z" transform="translate(40.948 2.804)" fill="#005eb8"/>
  </g>
</svg>
